<svg width="148" height="148" viewBox="0 0 148 148" fill="none" xmlns="http://www.w3.org/2000/svg">
<g clip-path="url(#clip0_831_4)">
<path fill-rule="evenodd" clip-rule="evenodd" d="M108.075 70.575C108.656 69.993 109.345 69.5312 110.105 69.2161C110.864 68.901 111.678 68.7388 112.5 68.7388C113.322 68.7388 114.136 68.901 114.895 69.2161C115.655 69.5312 116.344 69.993 116.925 70.575L141.925 95.575C142.507 96.1556 142.969 96.8453 143.284 97.6046C143.599 98.3639 143.761 99.1779 143.761 100C143.761 100.822 143.599 101.636 143.284 102.395C142.969 103.155 142.507 103.844 141.925 104.425L116.925 129.425C115.751 130.599 114.16 131.258 112.5 131.258C110.84 131.258 109.249 130.599 108.075 129.425C106.901 128.251 106.242 126.66 106.242 125C106.242 123.34 106.901 121.749 108.075 120.575L128.662 100L108.075 79.425C107.493 78.8444 107.031 78.1547 106.716 77.3954C106.401 76.6361 106.239 75.8221 106.239 75C106.239 74.1779 106.401 73.3639 106.716 72.6046C107.031 71.8453 107.493 71.1556 108.075 70.575ZM91.9249 70.575C91.3444 69.993 90.6547 69.5312 89.8954 69.2161C89.136 68.901 88.322 68.7388 87.4999 68.7388C86.6778 68.7388 85.8638 68.901 85.1045 69.2161C84.3452 69.5312 83.6555 69.993 83.0749 70.575L58.0749 95.575C57.4929 96.1556 57.0311 96.8453 56.716 97.6046C56.4009 98.3639 56.2388 99.1779 56.2388 100C56.2388 100.822 56.4009 101.636 56.716 102.395C57.0311 103.155 57.4929 103.844 58.0749 104.425L83.0749 129.425C84.2485 130.599 85.8402 131.258 87.4999 131.258C89.1596 131.258 90.7514 130.599 91.9249 129.425C93.0985 128.251 93.7578 126.66 93.7578 125C93.7578 123.34 93.0985 121.749 91.9249 120.575L71.3374 100L91.9249 79.425C92.507 78.8444 92.9688 78.1547 93.2838 77.3954C93.5989 76.6361 93.7611 75.8221 93.7611 75C93.7611 74.1779 93.5989 73.3639 93.2838 72.6046C92.9688 71.8453 92.507 71.1556 91.9249 70.575Z" fill="#FAFAFA"/>
<path d="M37.5 0H162.5C169.13 0 175.489 2.63392 180.178 7.32233C184.866 12.0107 187.5 18.3696 187.5 25V175C187.5 181.63 184.866 187.989 180.178 192.678C175.489 197.366 169.13 200 162.5 200H37.5C30.8696 200 24.5107 197.366 19.8223 192.678C15.1339 187.989 12.5 181.63 12.5 175V162.5H25V175C25 178.315 26.317 181.495 28.6612 183.839C31.0054 186.183 34.1848 187.5 37.5 187.5H162.5C165.815 187.5 168.995 186.183 171.339 183.839C173.683 181.495 175 178.315 175 175V25C175 21.6848 173.683 18.5054 171.339 16.1612C168.995 13.817 165.815 12.5 162.5 12.5H37.5C34.1848 12.5 31.0054 13.817 28.6612 16.1612C26.317 18.5054 25 21.6848 25 25V37.5H12.5V25C12.5 18.3696 15.1339 12.0107 19.8223 7.32233C24.5107 2.63392 30.8696 0 37.5 0Z" fill="#FAFAFA"/>
<path d="M12.5 62.5V56.25C12.5 54.5924 13.1585 53.0027 14.3306 51.8306C15.5027 50.6585 17.0924 50 18.75 50C20.4076 50 21.9973 50.6585 23.1694 51.8306C24.3415 53.0027 25 54.5924 25 56.25V62.5H31.25C32.9076 62.5 34.4973 63.1585 35.6694 64.3306C36.8415 65.5027 37.5 67.0924 37.5 68.75C37.5 70.4076 36.8415 71.9973 35.6694 73.1694C34.4973 74.3415 32.9076 75 31.25 75H6.25C4.5924 75 3.00269 74.3415 1.83058 73.1694C0.65848 71.9973 0 70.4076 0 68.75C0 67.0924 0.65848 65.5027 1.83058 64.3306C3.00269 63.1585 4.5924 62.5 6.25 62.5H12.5ZM12.5 100V93.75C12.5 92.0924 13.1585 90.5027 14.3306 89.3306C15.5027 88.1585 17.0924 87.5 18.75 87.5C20.4076 87.5 21.9973 88.1585 23.1694 89.3306C24.3415 90.5027 25 92.0924 25 93.75V100H31.25C32.9076 100 34.4973 100.658 35.6694 101.831C36.8415 103.003 37.5 104.592 37.5 106.25C37.5 107.908 36.8415 109.497 35.6694 110.669C34.4973 111.842 32.9076 112.5 31.25 112.5H6.25C4.5924 112.5 3.00269 111.842 1.83058 110.669C0.65848 109.497 0 107.908 0 106.25C0 104.592 0.65848 103.003 1.83058 101.831C3.00269 100.658 4.5924 100 6.25 100H12.5ZM12.5 137.5V131.25C12.5 129.592 13.1585 128.003 14.3306 126.831C15.5027 125.658 17.0924 125 18.75 125C20.4076 125 21.9973 125.658 23.1694 126.831C24.3415 128.003 25 129.592 25 131.25V137.5H31.25C32.9076 137.5 34.4973 138.158 35.6694 139.331C36.8415 140.503 37.5 142.092 37.5 143.75C37.5 145.408 36.8415 146.997 35.6694 148.169C34.4973 149.342 32.9076 150 31.25 150H6.25C4.5924 150 3.00269 149.342 1.83058 148.169C0.65848 146.997 0 145.408 0 143.75C0 142.092 0.65848 140.503 1.83058 139.331C3.00269 138.158 4.5924 137.5 6.25 137.5H12.5Z" fill="#FAFAFA"/>
</g>
<defs>
<clipPath id="clip0_831_4">
<rect width="148" height="148" fill="white"/>
</clipPath>
</defs>
</svg>